<svg xmlns="http://www.w3.org/2000/svg" width="100" height="100" viewBox="0 0 100 100">
  <path id="hand-holding-usd-solid" d="M47.058,28.184l9.422,2.793a1.642,1.642,0,0,1,1.151,1.582A1.618,1.618,0,0,1,56.047,34.2h-6.18a4.708,4.708,0,0,1-1.943-.43,2.271,2.271,0,0,0-2.656.391l-3.3,3.418a2.236,2.236,0,0,0-.391.52,2.472,2.472,0,0,0-.232,1.695,2.228,2.228,0,0,0,.906,1.379,13.477,13.477,0,0,0,5.991,2.246v3.457A3.082,3.082,0,0,0,51.259,50h3.016a3.083,3.083,0,0,0,3.017-3.125V43.438a10.9,10.9,0,0,0,9.288-12.3A11.322,11.322,0,0,0,58.5,21.816l-9.422-2.793a1.643,1.643,0,0,1-1.151-1.582c0-.9.71-2.5,1.583-2.5l.6-.188.562-.137.614-.145h1.308l1.652.145,1.4.534c.668,0,1.383.8,2,1.085a2.272,2.272,0,0,0,2.656-.391l3.3-3.418a2.17,2.17,0,0,0,.377-.508,2.473,2.473,0,0,0,.238-1.7,2.232,2.232,0,0,0-.9-1.385A13.484,13.484,0,0,0,57.31,6.586V3.125A3.081,3.081,0,0,0,54.294,0H51.278a3.081,3.081,0,0,0-3.016,3.125V6.563a10.911,10.911,0,0,0-9.29,12.3A11.332,11.332,0,0,0,47.058,28.184Zm51.077,35.9a5.267,5.267,0,0,0-7.4,0L74.7,78.516a10.306,10.306,0,0,1-6.944,2.734H47.221a3.147,3.147,0,0,1,0-6.25H60.813a5.962,5.962,0,0,0,5.772-5.2,6.839,6.839,0,0,0,.08-1.066c-.006-3.447-2.491-6.238-5.555-6.238H33.333a19.074,19.074,0,0,0-12.864,5.135L12.4,75H2.778A2.967,2.967,0,0,0,0,78.125v18.75A2.967,2.967,0,0,0,2.778,100H64.716a10.364,10.364,0,0,0,6.944-2.734L97.915,73.633A6.552,6.552,0,0,0,100,68.916a6.634,6.634,0,0,0-1.861-4.833Z" fill="#707070"/>
</svg>
