<svg xmlns="http://www.w3.org/2000/svg" width="100" height="100" viewBox="0 0 100 100">
  <g id="Сгруппировать_248" data-name="Сгруппировать 248" transform="translate(-527.729 -829)">
    <path id="certificate-solid" d="M89.575,49.984l8.981-8.79a4.653,4.653,0,0,0-2.083-7.879L84.237,30.192,87.687,18.08a4.732,4.732,0,0,0-5.793-5.8L69.785,15.735,66.663,3.495a4.686,4.686,0,0,0-7.876-2.084L50,10.463,41.213,1.412A4.686,4.686,0,0,0,33.337,3.5l-3.122,12.24L18.107,12.285a4.732,4.732,0,0,0-5.793,5.8l3.449,12.112L3.527,33.315a4.653,4.653,0,0,0-2.083,7.879l8.981,8.79-8.981,8.79a4.653,4.653,0,0,0,2.083,7.879l12.236,3.123L12.314,81.888a4.732,4.732,0,0,0,5.793,5.8l12.108-3.451,3.122,12.24a4.644,4.644,0,0,0,7.876,2.084L50,89.572l8.787,8.985a4.663,4.663,0,0,0,7.876-2.084l3.122-12.24,12.108,3.451a4.732,4.732,0,0,0,5.793-5.8L84.237,69.776l12.236-3.123a4.653,4.653,0,0,0,2.083-7.879l-8.981-8.79Z" transform="translate(527.729 829)" fill="#707070"/>
    <text id="_17" data-name="17" transform="translate(547.679 852)" fill="#f2f2f2" font-size="50" font-family="ArialMT, Arial"><tspan x="0.192" y="45">17</tspan></text>
    <path id="certificate-solid-2" data-name="certificate-solid" d="M89.575,49.984l8.981-8.79a4.653,4.653,0,0,0-2.083-7.879L84.237,30.192,87.687,18.08a4.732,4.732,0,0,0-5.793-5.8L69.785,15.735,66.663,3.495a4.686,4.686,0,0,0-7.876-2.084L50,10.463,41.213,1.412A4.686,4.686,0,0,0,33.337,3.5l-3.122,12.24L18.107,12.285a4.732,4.732,0,0,0-5.793,5.8l3.449,12.112L3.527,33.315a4.653,4.653,0,0,0-2.083,7.879l8.981,8.79-8.981,8.79a4.653,4.653,0,0,0,2.083,7.879l12.236,3.123L12.314,81.888a4.732,4.732,0,0,0,5.793,5.8l12.108-3.451,3.122,12.24a4.644,4.644,0,0,0,7.876,2.084L50,89.572l8.787,8.985a4.663,4.663,0,0,0,7.876-2.084l3.122-12.24,12.108,3.451a4.732,4.732,0,0,0,5.793-5.8L84.237,69.776l12.236-3.123a4.653,4.653,0,0,0,2.083-7.879l-8.981-8.79Z" transform="translate(527.729 829)" fill="#707070"/>
    <text id="_17-2" data-name="17" transform="translate(547.679 852)" fill="#e4edf8" font-size="50" font-family="ArialMT, Arial"><tspan x="0.192" y="45">17</tspan></text>
  </g>
</svg>
