<svg xmlns="http://www.w3.org/2000/svg" width="100" height="100" viewBox="0 0 100 100">
  <path id="clock-regular" d="M58,8a50,50,0,1,0,50,50A49.991,49.991,0,0,0,58,8Zm0,90.323A40.323,40.323,0,1,1,98.323,58,40.311,40.311,0,0,1,58,98.323ZM70.46,77.274,53.343,64.835a2.435,2.435,0,0,1-.988-1.956v-33.1a2.426,2.426,0,0,1,2.419-2.419h6.452a2.426,2.426,0,0,1,2.419,2.419V58.343l13.468,9.8a2.418,2.418,0,0,1,.524,3.387l-3.79,5.222a2.436,2.436,0,0,1-3.387.524Z" transform="translate(-8 -8)" fill="#707070"/>
</svg>
