<svg xmlns="http://www.w3.org/2000/svg" width="86" height="86.835" viewBox="0 0 86 86.835"><g transform="translate(-20 -9)"><circle cx="43" cy="43" r="43" transform="translate(20 9)" fill="#f2f2f2"/><g transform="translate(24.665 56.771) rotate(-45)" fill="#f2f2f2"><path d="M 27.19799995422363 48.81989669799805 C 15.275146484375 48.81989669799805 5.575200080871582 39.1203498840332 5.575200080871582 27.1980037689209 C 5.575200080871582 15.27514934539795 15.275146484375 5.575202941894531 27.19799995422363 5.575202941894531 C 27.75845336914063 5.575202941894531 28.31356048583984 5.596376419067383 28.86333274841309 5.638096332550049 L 48.68759918212891 5.651300430297852 L 48.68759918212891 24.46810913085938 C 48.785400390625 25.75888252258301 48.82080078125 26.47464370727539 48.82080078125 27.1980037689209 C 48.82080078125 39.1203498840332 39.12085342407227 48.81989669799805 27.19799995422363 48.81989669799805 Z" stroke="none"/><path d="M 27.19799995422363 42.81990814208984 C 35.81243896484375 42.81990814208984 42.82080078125 35.81195068359375 42.82080078125 27.1980094909668 C 42.82080078125 26.67218971252441 42.79515838623047 26.15188980102539 42.74488067626953 25.63928985595703 L 42.68759918212891 25.05508995056152 L 42.68759918212891 24.46810913085938 L 42.68759918212891 11.63959217071533 L 28.40921974182129 11.62088966369629 L 27.19799995422363 11.57520961761475 C 18.58355903625488 11.57520961761475 11.57520008087158 18.58357048034668 11.57520008087158 27.1980094909668 C 11.57520008087158 35.81195068359375 18.58355903625488 42.81990814208984 27.19799995422363 42.81990814208984 M 27.19799995422363 54.81990814208984 C 11.94209957122803 54.81990814208984 -0.4248000383377075 42.45301055908203 -0.4248000383377075 27.1980094909668 C -0.4248000383377075 11.94211006164551 11.94209957122803 -0.4247901737689972 27.19799995422363 -0.4247901737689972 C 27.9112606048584 -0.4247901737689972 28.61767959594727 -0.3977901935577393 29.31734085083008 -0.3446901738643646 L 54.68759918212891 -0.3446901738643646 L 54.68759918212891 24.46810913085938 C 54.77563858032227 25.36586952209473 54.82080078125 26.27709007263184 54.82080078125 27.1980094909668 C 54.82080078125 42.45301055908203 42.45389938354492 54.81990814208984 27.19799995422363 54.81990814208984 Z" stroke="none" fill="#3364a8"/></g></g></svg>