<svg xmlns="http://www.w3.org/2000/svg" width="170" height="170" viewBox="0 0 170 170">
  <path id="tools-solid" d="M166.338,131.372,127.46,92.495A24.653,24.653,0,0,0,99.106,87.88L63.713,52.489V31.872L21.215,0-.033,21.248l31.873,42.5H52.458L87.85,99.135a24.7,24.7,0,0,0,4.615,28.353l38.879,38.877a12.344,12.344,0,0,0,17.5,0l17.5-17.5a12.4,12.4,0,0,0,0-17.5ZM110.1,74.7a34.933,34.933,0,0,1,24.868,10.292l6.441,6.441a47,47,0,0,0,14.542-9.794,47.744,47.744,0,0,0,12.583-45.384,3.974,3.974,0,0,0-6.673-1.826l-24.7,24.7-22.544-3.752-3.752-22.543,24.7-24.7a4.008,4.008,0,0,0-1.892-6.706A47.828,47.828,0,0,0,88.315,14.01a47.047,47.047,0,0,0-13.679,34.4l27.258,27.257A36.17,36.17,0,0,1,110.1,74.7ZM75.6,101.924,56.774,83.1l-50.6,50.63a21.246,21.246,0,0,0,30.047,30.046L77.259,122.74a35.651,35.651,0,0,1-1.66-20.816ZM21.215,156.7a7.968,7.968,0,1,1,7.968-7.968A7.992,7.992,0,0,1,21.215,156.7Z" transform="translate(0.05)" fill="#5a8ed5"/>
</svg>
