<svg xmlns="http://www.w3.org/2000/svg" width="146.297" height="170" viewBox="0 0 146.297 170">
  <g id="Сгруппировать_244" data-name="Сгруппировать 244" transform="translate(-259.506 -3565)">
    <g id="notebook-outline_icon-icons.com_57792" transform="translate(259.506 3565)">
      <g id="Сгруппировать_160" data-name="Сгруппировать 160">
        <path id="Контур_36" data-name="Контур 36" d="M198.605,0H88.882c-8.047,0-14.63,5.667-14.63,12.593v6.3H66.938v6.3h7.315V44.074H66.938v6.3h7.315V69.259H66.938v6.3h7.315V94.444H66.938v6.3h7.315V119.63H66.938v6.3h7.315v18.889H66.938v6.3h7.315v6.3c0,6.926,6.583,12.593,14.63,12.593H198.605c8.046,0,14.63-5.667,14.63-12.593V12.593C213.235,5.667,206.651,0,198.605,0Zm7.314,157.407c0,3.148-2.926,6.3-7.315,6.3H88.882c-3.657,0-7.315-2.519-7.315-6.3v-6.3h7.315v-6.3H81.567V125.926h7.315v-6.3H81.567V100.741h7.315v-6.3H81.567V75.556h7.315v-6.3H81.567V50.37h7.315v-6.3H81.567V25.185h7.315v-6.3H81.567v-6.3c0-3.148,2.926-6.3,7.315-6.3H198.6c3.657,0,7.315,2.519,7.315,6.3Z" transform="translate(-66.938 0)" fill="#5a8ed5"/>
      </g>
    </g>
    <text id="Проект" transform="translate(335.852 3702.449)" fill="#5a8ed5" font-size="23" font-family="Roboto-Bold, Roboto" font-weight="700"><tspan x="-39.666" y="0">Проект</tspan></text>
    <g id="Logo-icon" transform="translate(288.638 3582.301)">
      <circle id="Background-icon" cx="47" cy="47" r="47" transform="translate(0.362)" fill="#5a8ed5"/>
      <g id="Union" transform="translate(8.084 50.193) rotate(-45)" fill="#f2f2f2">
        <path d="M 26.92884063720703 48.85768890380859 C 21.07175827026367 48.85768890380859 15.5650749206543 46.57675933837891 11.42318058013916 42.43507766723633 C 7.281133651733398 38.29323959350586 5.000004291534424 32.78634643554688 5.000004291534424 26.92884063720703 C 5.000004291534424 21.07133483886719 7.281133651733398 15.56445217132568 11.42318058013916 11.42261695861816 C 15.5650749206543 7.280934810638428 21.07175827026367 5.00000524520874 26.92884063720703 5.00000524520874 L 48.85971069335938 5.00000524520874 L 48.85971069335938 26.92884063720703 C 48.85971069335938 32.78639221191406 46.57852172851563 38.29325103759766 42.43635559082031 42.43498229980469 C 38.29419326782227 46.57672119140625 32.78683853149414 48.85768890380859 26.92884063720703 48.85768890380859 Z" stroke="none"/>
        <path d="M 26.92883491516113 9.999992370605469 C 17.5942497253418 9.999992370605469 10 17.59424209594727 10 26.92884063720703 C 10 36.26342391967773 17.5942497253418 43.85767364501953 26.92883491516113 43.85767364501953 C 36.26454925537109 43.85767364501953 43.85970306396484 36.26342391967773 43.85970306396484 26.92884063720703 L 43.85970306396484 9.999992370605469 L 26.92883491516113 9.999992370605469 M 26.92883491516113 -7.62939453125e-06 L 53.85970306396484 -7.62939453125e-06 L 53.85970306396484 26.92884063720703 C 53.85970306396484 41.80200958251953 41.802001953125 53.85767364501953 26.92883491516113 53.85767364501953 C 12.05768585205078 53.85767364501953 0 41.80200958251953 0 26.92884063720703 C 0 12.0556755065918 12.05768585205078 -7.62939453125e-06 26.92883491516113 -7.62939453125e-06 Z" stroke="none" fill="#3364a8"/>
      </g>
    </g>
  </g>
</svg>
