<svg id="shovel-and-ground_icon-icons.com_70617" xmlns="http://www.w3.org/2000/svg" width="195" height="170" viewBox="0 0 195 170">
  <path id="Контур_39" data-name="Контур 39" d="M160.542,166.216l7.718,9.039L25.179,175.3l1.751-11.12,15.718-8.783L40.2,136.776l20.852-1.827,1.079-9.69,24.223-2.1,1.39-17.413,4.158-5.567,9.687,2.1,1.116,9.268,15.495-.981.976,17.528,17.429,6.832.978,13.635c1.5,2.093,9.1-1.265,10.434.688s-1.219-1.913,0,0c-1.714,8.082,10.167,9.461,10.167,9.461ZM141.6,107.728l-7.3-2.49c-2.476,1.926-3.415,3.933-2.692,6.024l3.643,4.241,5.524-1.852c1.991-.676,2.677-1.926,2.069-3.716A6.612,6.612,0,0,0,141.6,107.728Zm-4.646-19.523a6.471,6.471,0,0,0-5.08-.313,9.225,9.225,0,0,0-3.045,1.908l.279,8.694,8.392-1.048c2.2-2.52,3.033-4.557,2.525-6.127A5.758,5.758,0,0,0,136.956,88.205Zm25.7,12.077.051.18c-.3.1-1.829-.256-4.57-1.124-1.321-.446-2.653-.944-3.986-1.47-1.9.639-3.072,2.542-3.528,5.683a20.513,20.513,0,0,0,.888,9.473,7.673,7.673,0,0,0,1.981,2.86l1.78,1.687,3.1-.165c3.479-1.519,5.46-2.362,5.992-2.54,1.245-.755,2.106-2.35,2.525-4.724a13.525,13.525,0,0,0-.481-6.882C165.57,100.731,164.351,99.722,162.652,100.282Zm-13.509,25.907-1.814,6.6a11.229,11.229,0,0,0,5.874,2.4l6.119-2.069-3.1-9.318ZM180.3,114.262l-1.829,6.615a11.367,11.367,0,0,0,5.891,2.414l6.117-2.056-3.111-9.333Zm4.506,49.629-1.814,6.6a11.391,11.391,0,0,0,5.867,2.414L195,170.852l-3.1-9.333Zm-1.726-29.339q-5.31-5.955-13.166-3.319l-.785.256a25.539,25.539,0,0,0-6.22,9.574q-2.515,5.936-1.4,9.372c.076.178,1.7,1.662,4.837,4.495,3.366,2.769,5.22,4.621,5.627,5.54l9.915-3.334a14.086,14.086,0,0,0,3.315-1.62,12.385,12.385,0,0,0,2.7-2.377,9.444,9.444,0,0,0,1.6-2.653,3.662,3.662,0,0,0,.088-2.517C187.432,141.483,185.259,137.03,183.077,134.552ZM81.832,92.182a68.683,68.683,0,0,1-6.747,19.158,67.676,67.676,0,0,1-20.146-1.849c-9.687-2.643-24.586-27.349-24.586-27.349l15.291-9.858-18.4-30.628L12.923,38.5,6.539,28.475l-2.78,1.8L0,24.369,29.6,5.295l3.756,5.886-2.78,1.788,6.411,10.043-3.175,14.56L52.155,68.105l15.223-9.838S83.485,82.219,81.832,92.182ZM16.014,34.047,28.861,36.88l2.807-12.9-5.281-8.307L10.741,25.765Z" transform="translate(0 -5.295)" fill="#5a8ed5"/>
</svg>
