<svg xmlns="http://www.w3.org/2000/svg" width="360" height="40" viewBox="0 0 360 40">
  <g id="Сгруппировать_217" data-name="Сгруппировать 217" transform="translate(-6643 5486)">
    <rect id="Email" width="360" height="40" rx="18" transform="translate(6643 -5486)" fill="#fff"/>
    <path id="Контур_45" data-name="Контур 45" d="M0,0V40" transform="translate(6712 -5486)" fill="none" stroke="#707070" stroke-width="1"/>
    <path id="phone-solid" d="M28.9,1.431,22.806.025a1.415,1.415,0,0,0-1.611.814L18.382,7.4a1.4,1.4,0,0,0,.4,1.641l3.551,2.906A21.715,21.715,0,0,1,11.955,22.331L9.049,18.78a1.4,1.4,0,0,0-1.641-.4L.846,21.189a1.423,1.423,0,0,0-.82,1.617L1.432,28.9A1.406,1.406,0,0,0,2.8,29.989,27.184,27.184,0,0,0,29.99,2.8,1.4,1.4,0,0,0,28.9,1.431Z" transform="translate(6665.01 -5480.989)" fill="#313234"/>
    <text id="_8_993_221-19-44_" data-name="8 (993) 221-19-44 " transform="translate(6746 -5456)" fill="#313234" font-size="26" font-family="Roboto-Bold, Roboto" font-weight="700"><tspan x="0" y="0">8 (993) 221-19-44 </tspan></text>
  </g>
</svg>
