<svg xmlns="http://www.w3.org/2000/svg" width="100" height="40" viewBox="0 0 100 40">
  <g id="Сгруппировать_212" data-name="Сгруппировать 212" transform="translate(-1330 -40)">
    <rect id="Telegram" width="100" height="40" rx="18" transform="translate(1330 40)" fill="#5a8ed5"/>
    <path id="icons8-telegram-app" d="M26.07,4a2.974,2.974,0,0,0-.934.223h0c-.285.113-1.641.684-3.7,1.547L14.051,8.875c-5.3,2.23-10.5,4.426-10.5,4.426l.063-.023a3.206,3.206,0,0,0-.734.375,2.03,2.03,0,0,0-.586.566,1.665,1.665,0,0,0-.277,1.109,2.013,2.013,0,0,0,.895,1.395,2.968,2.968,0,0,0,.664.355h.008l4.883,1.645c.219.7,1.488,4.875,1.793,5.836a3.579,3.579,0,0,0,.574,1.207,1.412,1.412,0,0,0,.379.352,1.119,1.119,0,0,0,.184.086.167.167,0,0,0,.063.02l-.051-.012a.363.363,0,0,1,.039.02.774.774,0,0,0,.117.023,1.654,1.654,0,0,0,1.395-.246l.035-.027,2.883-2.625L20.7,27.063l.109.047a2.566,2.566,0,0,0,2.566-.238,2.616,2.616,0,0,0,.754-1l.035-.09L27.9,6.656a2.75,2.75,0,0,0,.016-1.344,1.807,1.807,0,0,0-.781-1.047A1.872,1.872,0,0,0,26.07,4Zm-.1,2.051a.582.582,0,0,1-.02.176v.012l-3.7,18.93a.425.425,0,0,1-.117.145c-.078.063-.141.1-.465-.027l-5.91-4.531L12.188,24l.75-4.789,9.656-9c.4-.371.266-.449.266-.449.027-.453-.6-.133-.6-.133L10.082,17.176l0-.02L4.242,15.191v0l-.016,0a.269.269,0,0,0,.031-.012l.031-.016.031-.012,10.508-4.426C17.48,9.6,20.152,8.477,22.207,7.609s3.574-1.5,3.66-1.531S25.91,6.047,25.969,6.047Z" transform="translate(1364.978 43.773)" fill="#f2f2f2"/>
  </g>
</svg>
