<svg xmlns="http://www.w3.org/2000/svg" width="100" height="40" viewBox="0 0 100 40">
  <g id="Сгруппировать_215" data-name="Сгруппировать 215" transform="translate(-7153 5361)">
    <rect id="Telegram" width="100" height="40" rx="18" transform="translate(7153 -5361)" fill="#c019d3"/>
    <path id="viber-brands" d="M38.836,2.994C38.079,2.3,35.02.089,28.2.059c0,0-8.042-.48-11.959,3.1-2.179,2.17-2.947,5.354-3.03,9.3s-.185,11.331,6.965,13.335h.006l-.006,3.06s-.048,1.239.774,1.488c.988.308,1.572-.634,2.518-1.648.518-.557,1.232-1.376,1.774-2a27.767,27.767,0,0,0,9.078-.664C35.305,25.71,40.9,25,41.8,17.61c.941-7.625-.452-12.44-2.965-14.616Zm.827,14.059c-.768,6.167-5.3,6.558-6.132,6.825a25.69,25.69,0,0,1-7.81.664s-3.1,3.718-4.06,4.684c-.316.314-.661.285-.655-.338,0-.409.024-5.082.024-5.082h0c-6.06-1.672-5.7-7.963-5.637-11.254s.691-5.989,2.536-7.8C21.245,1.755,28.073,2.2,28.073,2.2c5.768.024,8.531,1.755,9.173,2.336,2.125,1.814,3.209,6.155,2.417,12.517Zm-8.275-4.791a.384.384,0,0,1-.768.036,1.837,1.837,0,0,0-1.941-2.01.383.383,0,0,1,.042-.765A2.583,2.583,0,0,1,31.388,12.262Zm1.208.67c.06-2.514-1.518-4.483-4.512-4.7a.383.383,0,0,1,.054-.765,5.2,5.2,0,0,1,5.227,5.485.384.384,0,0,1-.768-.018Zm2.8.795a.384.384,0,0,1-.768.006c-.036-4.833-3.268-7.465-7.191-7.495a.382.382,0,0,1,0-.765C31.823,5.5,35.353,8.521,35.395,13.727Zm-.673,5.817v.012c-.643,1.127-1.845,2.372-3.084,1.975l-.012-.018a22.91,22.91,0,0,1-6.084-3.35,15.532,15.532,0,0,1-2.524-2.514,19.235,19.235,0,0,1-1.834-2.763,17.683,17.683,0,0,1-1.548-3.3c-.4-1.233.845-2.431,1.982-3.071h.012a1.087,1.087,0,0,1,1.423.231s.738.878,1.054,1.31c.3.4.7,1.05.9,1.411a1.235,1.235,0,0,1-.22,1.577l-.714.569a1.041,1.041,0,0,0-.316.83,7.435,7.435,0,0,0,5.018,5,1.05,1.05,0,0,0,.833-.314l.571-.712a1.246,1.246,0,0,1,1.583-.219A15.423,15.423,0,0,1,34.5,18.144a1.056,1.056,0,0,1,.226,1.4Z" transform="translate(7175.603 -5355.934)" fill="#f2f2f2"/>
  </g>
</svg>
