<svg xmlns="http://www.w3.org/2000/svg" width="100" height="40" viewBox="0 0 100 40">
  <g id="Сгруппировать_214" data-name="Сгруппировать 214" transform="translate(-7278 5361)">
    <rect id="WhatsApp" width="100" height="40" rx="18" transform="translate(7278 -5361)" fill="#5ad563"/>
    <path id="whatsapp-2" data-name="whatsapp" d="M24.17,4.069a13.955,13.955,0,0,0-23.8,9.8A13.8,13.8,0,0,0,2.228,20.81L.25,28l7.391-1.929A13.979,13.979,0,0,0,14.3,27.759h.006A13.928,13.928,0,0,0,28.25,13.885,13.756,13.756,0,0,0,24.17,4.069ZM14.309,25.416h0a11.616,11.616,0,0,1-5.9-1.607l-.423-.25L3.6,24.7l1.171-4.256-.276-.436A11.528,11.528,0,0,1,14.313,2.343a11.537,11.537,0,1,1,0,23.073Zm6.356-8.637c-.348-.174-2.061-1.012-2.38-1.128s-.552-.173-.784.174-.9,1.128-1.1,1.359-.406.26-.755.087a9.524,9.524,0,0,1-2.8-1.721,10.465,10.465,0,0,1-1.938-2.4c-.2-.347,0-.517.153-.708a9.808,9.808,0,0,0,.871-1.186.635.635,0,0,0-.029-.607c-.087-.173-.784-1.88-1.074-2.574-.283-.676-.57-.584-.784-.6s-.435-.012-.668-.012a1.282,1.282,0,0,0-.929.434,3.881,3.881,0,0,0-1.219,2.892,6.727,6.727,0,0,0,1.422,3.586A15.5,15.5,0,0,0,14.6,19.613a20,20,0,0,0,1.986.73,4.8,4.8,0,0,0,2.194.137,3.589,3.589,0,0,0,2.351-1.648,2.884,2.884,0,0,0,.2-1.649C21.245,17.039,21.013,16.953,20.665,16.779Zm0,0" transform="translate(7313.679 -5355.02)" fill="#f2f2f2" fill-rule="evenodd"/>
  </g>
</svg>
